# xmcd
#
# Track frame offsets:
#	150
#	10746
#	29009
#	43417
#	67165
#	80836
#	92666
#	112873
#	133900
#	152022
#	167841
#	186045
#	200007
#	227306
#	249930
#	261938
#	279411
#	299258
#	312527
#	328203
#
# Disc length: 4583 seconds
#
# Revision: 1
# Processed by: cddbd v1.5PL3 Copyright (c) Steve Scherf et al.
# Submitted via: audiograbber 1.80
#
DISCID=2811e514
DTITLE=RW Hampton - Troubadour
DYEAR=1900
DGENRE=
TTITLE0=The Troubadour
TTITLE1=A Red, Red Rose
TTITLE2=The Oregon Trail
TTITLE3=Aura Lee
TTITLE4=Katy Wells
TTITLE5=North To Kansas
TTITLE6=Rock of Ages/Shall We Gather at the River
TTITLE7=Yellow Stripes/Garryowen
TTITLE8=Cole Younger
TTITLE9=The Buffalo Skinners
TTITLE10=When Have You Got Planned Tonight Diana
TTITLE11=One More Ride
TTITLE12=Bill Venero
TTITLE13=Rose of the San Joaquin/Tramps and Hawkers
TTITLE14=Curly Joe
TTITLE15=Old Faithful
TTITLE16=It's Only Me
TTITLE17=Silver Trails
TTITLE18=After All These Years
TTITLE19=Cowboy True
EXTD=
EXTT0=
EXTT1=
EXTT2=
EXTT3=
EXTT4=
EXTT5=
EXTT6=
EXTT7=
EXTT8=
EXTT9=
EXTT10=
EXTT11=
EXTT12=
EXTT13=
EXTT14=
EXTT15=
EXTT16=
EXTT17=
EXTT18=
EXTT19=
PLAYORDER=
